# xmcd
#
# Track frame offsets: 
#        150
#        14565
#        32501
#        46391
#        59668
#        77779
#        92698
#        105245
#        118956
#        135092
#        153929
#        170876
#
# Disc length: 2536 seconds
#
# Revision: 2
# Processed by: cddbd v1.5.2PL0 Copyright (c) Steve Scherf et al.
# Submitted via: ExactAudioCopy v1.1
#
DISCID=9609e60c
DTITLE=King Floyd - Well Done
DYEAR=1975
DGENRE=R&B
TTITLE0=Movin' On Strong
TTITLE1=So True
TTITLE2=I Really Love You
TTITLE3=Can't Give It Up
TTITLE4=That's Why I Love You
TTITLE5=I Feel Like Dynamite
TTITLE6=Try Me
TTITLE7=I'm Gonna Fall In Love With You
TTITLE8=If I Lie To You
TTITLE9=I'm For Real
TTITLE10=I Don't Think I Could Face It
TTITLE11=Very Well
EXTD=YEAR: 1975
EXTT0=
EXTT1=
EXTT2=
EXTT3=
EXTT4=
EXTT5=
EXTT6=
EXTT7=
EXTT8=
EXTT9=
EXTT10=
EXTT11=
PLAYORDER=
